<svg width="12" height="16" viewBox="0 0 12 16" fill="none" xmlns="http://www.w3.org/2000/svg">
<path d="M2.25 5.08366V4.66699C2.25 4.28033 2.25 4.08616 2.26667 3.92366C2.34217 3.15622 2.68143 2.43871 3.22663 1.89336C3.77183 1.348 4.48925 1.00855 5.25667 0.932826C5.41917 0.916992 5.61333 0.916992 6 0.916992C6.38667 0.916992 6.58083 0.916992 6.74333 0.933659C7.51077 1.00917 8.22828 1.34842 8.77364 1.89362C9.31899 2.43883 9.65845 3.15625 9.73417 3.92366C9.75 4.08616 9.75 4.28033 9.75 4.66699V5.08366M8.91667 9.25033V7.58366M3.08333 9.25033V7.58366" stroke="#999999" stroke-linecap="round"/>
<path d="M0.583496 8.08398C0.583496 6.66982 0.583496 5.96232 1.02266 5.52315C1.46183 5.08398 2.16933 5.08398 3.5835 5.08398H8.41683C9.831 5.08398 10.5385 5.08398 10.9777 5.52315C11.4168 5.96232 11.4168 6.66982 11.4168 8.08398V10.084C11.4168 12.4407 11.4168 13.6198 10.6843 14.3515C9.95266 15.084 8.7735 15.084 6.41683 15.084H5.5835C3.22683 15.084 2.04766 15.084 1.316 14.3515C0.583496 13.6198 0.583496 12.4407 0.583496 10.084V8.08398Z" stroke="#999999"/>
</svg>
