<svg width="12" height="19" viewBox="0 0 12 19" fill="none" xmlns="http://www.w3.org/2000/svg">
<path d="M2.5 16.5V17.5C2.5 17.7652 2.60536 18.0196 2.79289 18.2071C2.98043 18.3946 3.23478 18.5 3.5 18.5C3.76522 18.5 4.01957 18.3946 4.20711 18.2071C4.39464 18.0196 4.5 17.7652 4.5 17.5V16.5M7.5 16.5V17.5C7.5 17.7652 7.60536 18.0196 7.79289 18.2071C7.98043 18.3946 8.23478 18.5 8.5 18.5C8.76522 18.5 9.01957 18.3946 9.20711 18.2071C9.39464 18.0196 9.5 17.7652 9.5 17.5V16.5M3.5 4.5V1.5C3.5 1.23478 3.60536 0.98043 3.79289 0.792893C3.98043 0.605357 4.23478 0.5 4.5 0.5H7.5C7.76522 0.5 8.01957 0.605357 8.20711 0.792893C8.39464 0.98043 8.5 1.23478 8.5 1.5V4.5M0.5 5.5C0.5 5.23478 0.605357 4.98043 0.792893 4.79289C0.98043 4.60536 1.23478 4.5 1.5 4.5H10.5C10.7652 4.5 11.0196 4.60536 11.2071 4.79289C11.3946 4.98043 11.5 5.23478 11.5 5.5V15.5C11.5 15.7652 11.3946 16.0196 11.2071 16.2071C11.0196 16.3946 10.7652 16.5 10.5 16.5H1.5C1.23478 16.5 0.98043 16.3946 0.792893 16.2071C0.605357 16.0196 0.5 15.7652 0.5 15.5V5.5Z" stroke="#999999" stroke-linecap="round" stroke-linejoin="round"/>
</svg>
