<svg width="50" height="51" viewBox="0 0 50 51" fill="none" xmlns="http://www.w3.org/2000/svg">
<g clip-path="url(#clip0_2020_3876)">
<rect y="0.786621" width="50" height="50" rx="25" fill="#DFE4E7"/>
<path d="M3.62964 52.2964C3.63125 52.4116 3.65555 52.5254 3.70115 52.6312C3.74674 52.7371 3.81274 52.8329 3.89538 52.9133C3.97801 52.9936 4.07567 53.0569 4.18276 53.0995C4.28985 53.1421 4.40428 53.1631 4.51952 53.1615H45.4774C45.5927 53.1633 45.7073 53.1423 45.8145 53.0998C45.9217 53.0573 46.0195 52.994 46.1023 52.9137C46.185 52.8333 46.2511 52.7374 46.2968 52.6315C46.3424 52.5256 46.3668 52.4117 46.3684 52.2964V51.2636C46.3886 50.952 46.4303 49.3995 45.4065 47.6816C44.7608 46.5982 43.8236 45.6634 42.621 44.9006C41.1664 43.9781 39.3158 43.311 37.077 42.9094C35.9405 42.7499 34.8132 42.5306 33.6998 42.2524C30.7388 41.4964 30.48 40.827 30.4778 40.8202C30.4603 40.7543 30.4354 40.6905 30.4035 40.6301C30.3788 40.5064 30.3191 40.0361 30.4339 38.7773C30.7241 35.5789 32.4398 33.6889 33.8179 32.1701C34.2521 31.692 34.6628 31.2386 34.9789 30.7954C36.3435 28.8829 36.4695 26.706 36.4751 26.571C36.4803 26.3318 36.4472 26.0933 36.3773 25.8645C36.2423 25.4482 35.9914 25.1895 35.8069 24.9982C35.7633 24.9544 35.7209 24.9094 35.6798 24.8632C35.6663 24.8475 35.6303 24.8047 35.6629 24.5899C35.7732 23.8977 35.8494 23.2004 35.8913 22.5007C35.9543 21.3735 36.0026 19.6882 35.7113 18.0469C35.6686 17.7333 35.6039 17.4232 35.5178 17.1187C35.2118 15.9885 34.7168 15.0247 34.0328 14.2275C33.9146 14.0981 31.0481 11.0775 22.7265 10.4587C21.5756 10.3732 20.4383 10.4194 19.3178 10.4767C18.9864 10.4842 18.6566 10.5249 18.3334 10.5982C17.4739 10.8199 17.2444 11.3644 17.1848 11.6692C17.0846 12.1755 17.2601 12.567 17.376 12.828C17.3929 12.8651 17.4143 12.9112 17.3771 13.0327C17.1848 13.332 16.8799 13.602 16.5705 13.8574C16.4805 13.9327 14.3948 15.7327 14.28 18.0829C13.9706 19.8705 13.9931 22.6549 14.3588 24.5797C14.3813 24.6866 14.4116 24.8441 14.361 24.951C13.9673 25.3031 13.5218 25.7025 13.5229 26.6137C13.5274 26.706 13.6545 28.8817 15.0191 30.7954C15.3341 31.2386 15.7448 31.6909 16.1779 32.169L16.1801 32.1701C17.5583 33.6889 19.2739 35.5789 19.5641 38.7761C19.6778 40.0361 19.6181 40.5052 19.5945 40.6301C19.5622 40.6904 19.537 40.7542 19.5191 40.8202C19.518 40.827 19.2604 41.4941 16.3129 42.249C14.6119 42.6844 12.9379 42.9071 12.8873 42.9127C10.7115 43.2806 8.87214 43.932 7.41977 44.8489C6.22164 45.606 5.28227 46.5442 4.62977 47.6355C3.58577 49.3792 3.61389 50.9677 3.62852 51.258L3.62964 52.2964Z" fill="#999999"/>
</g>
<defs>
<clipPath id="clip0_2020_3876">
<rect y="0.786621" width="50" height="50" rx="25" fill="white"/>
</clipPath>
</defs>
</svg>
