<svg width="20" height="21" viewBox="0 0 20 21" fill="none" xmlns="http://www.w3.org/2000/svg">
<path d="M12.3631 19.0253C11.6105 19.1151 10.9292 19.3739 10.4365 19.7571L10.432 19.7606C10.2176 19.9456 9.92963 20.0883 9.59956 20.1732C9.26949 20.2581 8.9101 20.2818 8.56079 20.2418L8.57242 20.243V20.2354L8.50089 20.2366L8.4258 20.2354H8.42937V20.243C8.08266 20.2813 7.72656 20.2569 7.39948 20.1724C7.0724 20.0879 6.78676 19.9465 6.57337 19.7635L6.56979 19.7606C6.08189 19.3787 5.40656 19.1196 4.65926 19.0277L4.63869 19.0253C3.88863 18.9213 3.10639 18.9996 2.43809 19.2457C1.76979 19.4918 1.26114 19.8887 1.00715 20.3624L1 20.3771L2.05674 20.6083C2.22435 20.2964 2.56175 20.036 3.00434 19.8769C3.44693 19.7178 3.96361 19.6712 4.45542 19.746L4.44201 19.7442C4.96495 19.8074 5.43494 19.993 5.76427 20.2664L5.76785 20.2693C6.05734 20.5018 6.42554 20.687 6.84328 20.8102C7.26103 20.9333 7.71683 20.9911 8.17457 20.9789H8.16921C8.27351 20.9785 8.38378 20.9757 8.5 20.9707C8.61503 20.9757 8.7253 20.9785 8.83079 20.9789C9.28656 20.9909 9.74037 20.9334 10.1564 20.8109C10.5723 20.6884 10.9391 20.5042 11.2277 20.2728L11.2321 20.2693C11.5588 19.9968 12.0249 19.8109 12.5446 19.746L12.558 19.7448C13.0458 19.6722 13.5573 19.7191 13.9959 19.8765C14.4345 20.034 14.7699 20.2912 14.9388 20.5995L14.9433 20.6089L16 20.3776C15.7484 19.8982 15.2368 19.496 14.5623 19.2472C13.8878 18.9985 13.0972 18.9205 12.3407 19.0282L12.3613 19.0259L12.3631 19.0253Z" fill="#0386AF"/>
<path d="M2.66675 10.7474C2.47315 10.744 2.28793 10.6687 2.14788 10.5366C2.00783 10.4044 1.92319 10.225 1.91077 10.034C1.89835 9.84304 1.95906 9.65441 2.08084 9.50562C2.20262 9.35682 2.37657 9.25874 2.56814 9.23085H2.57231V9.2358L3.0353 9.31841C3.15656 9.38368 3.2578 9.48002 3.32838 9.59732C3.39897 9.71462 3.43629 9.84854 3.43644 9.98501V9.98584C3.43622 10.1876 3.35525 10.3811 3.21121 10.5241C3.06716 10.6671 2.87174 10.748 2.66758 10.7491L2.66675 10.7474ZM3.61194 5.62771L5.88507 4.83968H11.1191L13.3922 5.62771V7.51271L8.50251 6.71972L3.61277 7.51271L3.61194 5.62771ZM6.96898 2.00805H10.036L10.5283 3.80962H6.47675L6.96898 2.00805ZM13.9714 9.31593L14.4344 9.23333V9.2292C14.6206 9.25226 14.792 9.3415 14.9165 9.48027C15.0411 9.61903 15.1103 9.79785 15.1113 9.98336C15.1113 10.1856 15.03 10.3795 14.8854 10.5225C14.7407 10.6655 14.5445 10.7458 14.3399 10.7458C14.1354 10.7458 13.9392 10.6655 13.7945 10.5225C13.6498 10.3795 13.5686 10.1856 13.5686 9.98336V9.98253C13.5686 9.6959 13.729 9.44644 13.9655 9.31758L13.9697 9.31593H13.9714ZM4.26212 17.2152H4.26713C4.53734 17.2152 4.80087 17.2386 5.05771 17.2855L5.03097 17.2813C5.89553 17.4361 6.68037 17.8789 7.25479 18.5361L7.25897 18.541C7.38879 18.6991 7.542 18.8271 7.71861 18.9251L7.72697 18.9293V18.9144L8.48162 18.9805H8.51337L9.27136 18.9053V18.9317C9.45522 18.8293 9.61038 18.7013 9.73685 18.5476L9.73936 18.5452C10.3084 17.8913 11.0856 17.4482 11.9431 17.2888L11.9665 17.2855C12.1972 17.2425 12.4629 17.2169 12.7345 17.2161H12.7396C13.0226 17.2161 13.297 17.2453 13.5627 17.3036L13.5377 17.2987L17 8.10167L14.4285 7.6837V4.89998L11.6331 3.93022L10.8308 0.980469H6.16921L5.36693 3.93022L2.57148 4.89998V7.6837L0 8.10167L3.46234 17.2987C3.70219 17.2458 3.97798 17.2161 4.26045 17.2161H4.26546L4.26212 17.2152Z" fill="#0386AF"/>
</svg>
