<svg width="18" height="18" viewBox="0 0 18 18" fill="none" xmlns="http://www.w3.org/2000/svg">
<path d="M8.52381 17.5238V16.6086C6.53968 16.4225 4.90159 15.6835 3.60952 14.3914C2.31682 13.0987 1.57778 11.4603 1.39238 9.47619H0.47619C0.341587 9.47619 0.228571 9.43047 0.137143 9.33904C0.0457143 9.24762 0 9.13428 0 8.99904C0 8.86381 0.0457143 8.75079 0.137143 8.66C0.228571 8.5692 0.341587 8.52381 0.47619 8.52381H1.39238C1.57778 6.53968 2.31682 4.90159 3.60952 3.60952C4.90222 2.31746 6.54031 1.57841 8.52381 1.39238V0.47619C8.52381 0.341587 8.56952 0.228571 8.66095 0.137143C8.75238 0.0457143 8.86571 0 9.00095 0C9.13619 0 9.2492 0.0457143 9.34 0.137143C9.43079 0.228571 9.47619 0.341587 9.47619 0.47619V1.39238C11.4603 1.57778 13.0984 2.31682 14.3905 3.60952C15.6825 4.90222 16.4219 6.54031 16.6086 8.52381H17.5238C17.659 8.52381 17.7721 8.56952 17.8629 8.66095C17.9536 8.75238 17.9994 8.86571 18 9.00095C18.0006 9.13619 17.9549 9.2492 17.8629 9.34C17.7708 9.43079 17.6578 9.47619 17.5238 9.47619H16.6086C16.4225 11.4603 15.6835 13.0984 14.3914 14.3905C13.0987 15.6832 11.4603 16.4225 9.47619 16.6086V17.5238C9.47619 17.659 9.43047 17.7721 9.33904 17.8629C9.24762 17.9536 9.13428 17.9994 8.99904 18C8.86381 18.0006 8.75079 17.9549 8.66 17.8629C8.5692 17.7708 8.52381 17.6578 8.52381 17.5238ZM9 15.6667C10.8413 15.6667 12.4127 15.0159 13.7143 13.7143C15.0159 12.4127 15.6667 10.8413 15.6667 9C15.6667 7.15873 15.0159 5.5873 13.7143 4.28571C12.4127 2.98413 10.8413 2.33333 9 2.33333C7.15873 2.33333 5.5873 2.98413 4.28571 4.28571C2.98413 5.5873 2.33333 7.15873 2.33333 9C2.33333 10.8413 2.98413 12.4127 4.28571 13.7143C5.5873 15.0159 7.15873 15.6667 9 15.6667ZM9 11.8571C8.2146 11.8571 7.5419 11.5775 6.9819 11.0181C6.4219 10.4587 6.14222 9.78603 6.14285 9C6.14349 8.21397 6.42317 7.54127 6.9819 6.9819C7.54063 6.42254 8.21333 6.14285 9 6.14285C9.78666 6.14285 10.4594 6.42254 11.0181 6.9819C11.5768 7.54127 11.8565 8.21397 11.8571 9C11.8578 9.78603 11.5781 10.4587 11.0181 11.0181C10.4581 11.5775 9.78539 11.8571 9 11.8571ZM9 10.9048C9.52381 10.9048 9.97238 10.7184 10.3457 10.3457C10.719 9.97301 10.9054 9.52444 10.9048 9C10.9041 8.47555 10.7178 8.0273 10.3457 7.65524C9.97365 7.28317 9.52508 7.09651 9 7.09524C8.47492 7.09397 8.02666 7.28063 7.65524 7.65524C7.28381 8.02984 7.09714 8.47809 7.09524 9C7.09333 9.5219 7.28 9.97047 7.65524 10.3457C8.03047 10.7209 8.47873 10.9073 9 10.9048Z" fill="#00A6DB"/>
</svg>
