<svg width="16" height="18" viewBox="0 0 16 18" fill="none" xmlns="http://www.w3.org/2000/svg">
<path d="M11.4284 7.87469C11.4284 8.76982 11.0672 9.62829 10.4242 10.2612C9.78127 10.8942 8.90926 11.2498 8 11.2498C7.09074 11.2498 6.21873 10.8942 5.57578 10.2612C4.93284 9.62829 4.57164 8.76982 4.57164 7.87469C4.57164 6.97955 4.93284 6.12108 5.57578 5.48813C6.21873 4.85517 7.09074 4.49958 8 4.49958C8.90926 4.49958 9.78127 4.85517 10.4242 5.48813C11.0672 6.12108 11.4284 6.97955 11.4284 7.87469ZM10.2856 7.87469C10.2856 7.27793 10.0448 6.70562 9.61614 6.28365C9.18752 5.86168 8.60617 5.62462 8 5.62462C7.39383 5.62462 6.81248 5.86168 6.38386 6.28365C5.95523 6.70562 5.71443 7.27793 5.71443 7.87469C5.71443 8.47144 5.95523 9.04375 6.38386 9.46572C6.81248 9.88769 7.39383 10.1248 8 10.1248C8.60617 10.1248 9.18752 9.88769 9.61614 9.46572C10.0448 9.04375 10.2856 8.47144 10.2856 7.87469ZM13.6568 13.4492C15.1572 11.9714 16 9.96749 16 7.87806C16 5.78863 15.1572 3.78472 13.6568 2.30689C12.914 1.57552 12.0321 0.995362 11.0615 0.599544C10.0909 0.203726 9.05058 0 8 0C6.94942 0 5.90913 0.203726 4.93853 0.599544C3.96794 0.995362 3.08604 1.57552 2.34321 2.30689C0.842836 3.78472 0 5.78863 0 7.87806C0 9.96749 0.842836 11.9714 2.34321 13.4492L4.08139 15.1357L6.4161 17.3689L6.56809 17.5016C7.45375 18.2081 8.75081 18.1631 9.58504 17.3689L12.3677 14.7025L13.6568 13.4492ZM3.14887 3.10004C3.78568 2.47243 4.54189 1.97454 5.37429 1.63484C6.20668 1.29514 7.09892 1.12029 8 1.12029C8.90108 1.12029 9.79332 1.29514 10.6257 1.63484C11.4581 1.97454 12.2143 2.47243 12.8511 3.10004C14.1016 4.33273 14.8206 5.99304 14.858 7.73481C14.8955 9.47657 14.2486 11.1654 13.0523 12.4491L12.8511 12.6561L11.3415 14.1231L8.79309 16.5633L8.68567 16.6533C8.48774 16.7992 8.24707 16.878 7.99981 16.8778C7.75254 16.8776 7.51202 16.7984 7.31433 16.6522L7.20805 16.5622L3.80255 13.294L3.14887 12.6561L2.94774 12.4502C1.75137 11.1665 1.10449 9.4777 1.14196 7.73593C1.17943 5.99417 1.89836 4.33273 3.14887 3.10004Z" fill="#00A6DB"/>
</svg>
